<?xml version="1.0" standalone="no"?>
<!DOCTYPE svg PUBLIC "-//W3C//DTD SVG 20010904//EN"
 "http://www.w3.org/TR/2001/REC-SVG-20010904/DTD/svg10.dtd">
<svg version="1.0" xmlns="http://www.w3.org/2000/svg"
 width="412.000000pt" height="416.000000pt" viewBox="0 0 412.000000 416.000000"
 preserveAspectRatio="xMidYMid meet">

<g transform="translate(0.000000,416.000000) scale(0.100000,-0.100000)"
fill="#000000" stroke="none">
<path d="M2800 3858 c-1 -89 -5 -473 -10 -851 l-9 -688 -57 -74 c-51 -68 -59
-74 -83 -67 -14 4 -45 6 -68 6 -41 -1 -43 0 -43 27 0 15 4 30 10 34 17 10 0
31 -63 77 -156 113 -705 514 -733 535 l-32 24 -418 -322 c-395 -303 -419 -323
-425 -357 -4 -20 -85 -220 -181 -444 -125 -289 -174 -414 -171 -432 l5 -26
1565 0 1566 0 -6 32 c-3 18 -26 125 -51 238 -68 309 -151 689 -206 940 -27
124 -86 392 -130 595 -45 204 -101 459 -125 568 -38 178 -55 230 -69 216 -2
-2 8 -63 24 -134 33 -148 135 -611 209 -950 112 -513 144 -660 192 -880 28
-126 67 -306 88 -400 l37 -170 -400 -3 c-221 -1 -407 0 -413 3 -8 2 -13 22
-12 47 0 38 5 47 41 76 34 27 48 32 92 32 29 0 58 -6 65 -13 10 -10 11 -9 6 5
-4 11 0 18 12 21 10 3 0 3 -21 0 -35 -5 -38 -4 -32 13 6 17 6 17 -12 1 -10 -9
-27 -17 -38 -17 -15 0 -12 6 16 30 19 16 41 30 48 30 6 0 12 4 12 9 0 14 43 0
57 -18 7 -10 12 -11 13 -4 0 6 8 14 18 16 13 4 11 5 -5 6 -22 1 -34 31 -12 31
5 0 7 5 3 12 -5 8 -11 5 -17 -10 -6 -13 -19 -22 -31 -22 -21 1 -21 1 -1 16 19
16 19 16 -5 9 -23 -7 -24 -6 -11 9 12 14 12 19 2 25 -7 5 -10 19 -7 37 l6 29
-14 -30 c-8 -16 -10 -32 -5 -35 4 -3 7 -16 6 -28 -1 -13 -5 -18 -10 -13 -11
11 -47 -17 -42 -33 3 -13 -103 -112 -111 -103 -3 3 0 22 7 42 9 25 23 41 44
49 24 10 26 13 12 19 -9 3 -23 -1 -33 -10 -13 -14 -17 -14 -26 -2 -8 11 -9 10
-4 -4 3 -10 0 -17 -7 -17 -8 0 -9 -2 -1 -8 7 -4 8 -16 4 -27 -7 -19 -7 -19
-14 3 -4 12 -12 22 -17 22 -5 0 -9 9 -9 21 0 11 -7 27 -15 35 -8 9 -15 11 -15
5 0 -20 21 -65 38 -78 9 -8 11 -12 5 -8 -7 3 -13 1 -13 -4 0 -6 7 -11 16 -11
8 0 12 -5 9 -10 -4 -6 -10 -8 -14 -6 -4 3 -8 -5 -8 -17 -2 -20 -1 -21 11 -5 7
10 16 15 19 12 11 -11 -23 -36 -41 -30 -16 6 -16 5 1 -8 11 -9 17 -27 17 -55
l0 -41 -174 0 -175 0 -4 33 -4 32 -1 -32 -2 -33 -520 0 c-451 0 -520 2 -520
15 0 12 81 360 180 773 17 68 57 239 90 380 33 141 64 265 68 275 6 14 70 -28
393 -263 l386 -280 5 -50 c3 -28 7 -53 10 -55 3 -3 19 0 37 6 30 11 51 9 115
-7 16 -4 26 -2 26 5 0 6 26 45 59 85 l59 74 6 569 c13 1010 12 1136 -1 1140
-10 4 -13 -33 -13 -159z m-862 -1175 c119 -87 244 -178 278 -203 236 -171 312
-228 284 -214 -13 6 -385 273 -535 384 -137 100 -237 171 -249 176 -7 3 -19
-2 -26 -11 -7 -8 -8 -15 -3 -15 11 0 8 -13 -57 -285 -21 -88 -59 -248 -84
-355 -26 -107 -79 -332 -119 -500 l-73 -305 -67 -3 c-37 -2 -67 1 -67 6 0 5
15 60 34 121 23 76 30 111 21 111 -19 0 -358 -79 -380 -89 -13 -5 -31 -35 -49
-80 -28 -71 -28 -71 -66 -71 -21 0 -41 4 -44 8 -3 5 3 29 12 55 9 25 14 49 10
52 -3 3 -21 2 -39 -2 -28 -7 -38 -18 -58 -61 -24 -51 -26 -52 -68 -52 -24 0
-43 5 -43 11 0 6 46 117 101 248 l102 237 68 28 68 28 38 91 c36 86 43 95 100
134 54 38 64 51 87 108 25 62 32 95 21 95 -3 0 -58 -39 -121 -86 -64 -47 -118
-83 -120 -81 -3 2 1 17 8 33 12 25 168 145 706 543 40 30 70 56 68 58 -2 3
-67 -42 -143 -99 -133 -100 -180 -133 -158 -111 26 27 328 253 337 253 6 0
107 -71 226 -157z m-847 -455 c-19 -44 -32 -59 -80 -89 -56 -35 -60 -41 -96
-128 -36 -87 -40 -92 -83 -111 -25 -11 -46 -19 -48 -18 -1 2 21 57 50 123 l52
120 109 82 c61 45 112 80 114 78 2 -3 -6 -28 -18 -57z m1869 -628 c0 -5 -5
-10 -11 -10 -5 0 -7 5 -4 10 3 6 8 10 11 10 2 0 4 -4 4 -10z m-1705 -52 c-4
-13 -14 -45 -22 -73 -31 -105 -38 -120 -61 -123 -28 -4 -28 0 5 110 20 66 33
92 48 98 32 14 37 11 30 -12z m-100 -95 c-26 -85 -45 -124 -45 -92 0 9 11 49
25 90 35 103 35 103 42 96 3 -4 -7 -46 -22 -94z m-16 75 c0 -7 -13 -49 -27
-93 l-27 -80 -67 -3 c-49 -2 -68 1 -68 9 0 7 10 43 22 81 l22 67 60 15 c78 18
86 19 85 4z m-175 -50 c-25 -81 -41 -119 -47 -119 -10 1 -9 10 14 79 11 34 25
62 30 62 6 0 7 -10 3 -22z m-56 -50 c-24 -73 -31 -83 -52 -75 -13 5 -13 13 6
59 25 63 36 78 54 78 10 0 8 -15 -8 -62z m-173 5 c-4 -10 -10 -27 -13 -38 -8
-30 -22 -45 -44 -45 -15 0 -18 4 -13 18 4 9 11 29 17 44 8 24 21 33 52 37 4 0
5 -7 1 -16z"/>
<path d="M1375 2509 c-161 -114 -171 -122 -186 -167 -30 -86 -31 -92 -20 -92
11 0 310 190 343 218 10 8 24 40 33 71 9 31 18 64 21 74 3 10 0 17 -8 16 -7 0
-89 -55 -183 -120z m151 30 c-15 -48 -29 -68 -48 -69 -11 0 21 92 39 112 24
27 26 16 9 -43z m-66 -44 c-11 -40 -46 -82 -58 -70 -9 8 28 98 45 110 25 19
27 12 13 -40z m-76 -47 c-16 -49 -54 -95 -54 -66 0 30 23 83 44 100 11 9 22
15 23 14 2 -1 -4 -23 -13 -48z m-69 -45 c-15 -50 -45 -91 -45 -62 0 40 36 109
56 109 2 0 -3 -21 -11 -47z m-64 -51 c-7 -23 -22 -47 -36 -56 -29 -19 -29 -20
-10 35 14 40 42 75 52 65 3 -2 -1 -22 -6 -44z"/>
<path d="M1211 1992 l-183 -87 -51 -133 c-27 -73 -47 -135 -44 -139 4 -3 94
22 201 57 l194 63 41 152 c42 157 46 175 34 174 -5 0 -91 -39 -192 -87z m179
56 c-1 -2 -18 -63 -39 -137 -34 -121 -57 -168 -75 -150 -10 9 66 264 82 277
14 11 33 16 32 10z m-74 -45 c-2 -10 -19 -70 -36 -133 -18 -63 -35 -118 -39
-122 -3 -4 -18 -10 -33 -13 l-26 -7 40 129 c37 118 61 163 90 163 5 0 7 -8 4
-17z m-81 -45 c-56 -184 -78 -240 -98 -247 -12 -5 -24 -7 -26 -5 -8 8 82 255
97 264 27 15 34 12 27 -12z m-112 -144 c-24 -74 -45 -120 -56 -126 -10 -5 -21
-7 -24 -4 -10 10 79 246 96 256 27 15 24 -4 -16 -126z m-33 87 c0 -11 -67
-197 -80 -221 -11 -21 -50 -34 -50 -16 0 26 82 222 97 234 20 14 33 16 33 3z"/>
<path d="M865 1830 c-38 -18 -42 -24 -83 -135 -24 -64 -42 -119 -39 -122 3 -2
27 1 53 9 l47 13 43 115 c24 63 44 121 44 128 0 16 -17 14 -65 -8z m21 -67
c-13 -32 -30 -79 -40 -105 -13 -36 -24 -49 -48 -57 -29 -10 -30 -10 -24 13 19
76 69 184 89 194 43 21 46 14 23 -45z"/>
<path d="M2845 3843 c5 -150 13 -432 35 -1172 5 -178 12 -326 15 -329 3 -3 7
-3 10 0 5 5 -9 509 -35 1303 -5 160 -10 305 -10 323 0 17 -5 32 -11 32 -7 0
-8 -50 -4 -157z"/>
<path d="M2894 3948 c3 -18 8 -78 11 -133 3 -55 12 -188 20 -295 8 -107 21
-296 30 -420 8 -124 20 -281 25 -350 6 -69 15 -192 20 -275 20 -297 23 -325
31 -325 12 0 11 39 -1 191 -5 68 -21 286 -35 484 -14 198 -34 482 -45 630 -10
149 -22 308 -25 355 -9 129 -15 170 -26 170 -6 0 -8 -14 -5 -32z"/>
<path d="M2954 3923 c3 -16 8 -48 11 -73 3 -25 25 -211 50 -415 25 -203 52
-424 60 -490 8 -66 28 -232 45 -370 17 -137 37 -306 45 -375 33 -277 37 -306
44 -324 19 -50 15 16 -10 224 -74 595 -206 1682 -215 1760 -7 70 -13 90 -25
90 -6 0 -8 -12 -5 -27z"/>
<path d="M3010 3918 c0 -5 100 -597 229 -1358 28 -162 77 -457 111 -655 57
-338 78 -438 79 -376 1 26 -1 40 -240 1444 -87 515 -159 940 -159 942 0 3 -4
5 -10 5 -5 0 -10 -1 -10 -2z"/>
<path d="M1382 3603 c-4 -10 -7 -81 -7 -158 1 -194 31 -268 116 -281 112 -17
174 122 149 331 -6 50 -13 98 -16 108 -9 30 -29 12 -27 -24 16 -257 16 -264
-5 -312 -23 -53 -54 -67 -101 -47 -51 21 -64 71 -60 245 4 149 4 150 -19 153
-14 2 -25 -3 -30 -15z"/>
<path d="M1916 3555 c-7 -19 10 -65 23 -65 17 0 29 34 20 58 -10 25 -34 29
-43 7z"/>
<path d="M1739 3445 c-34 -18 -52 -67 -38 -99 6 -12 33 -36 60 -52 48 -27 67
-53 54 -74 -10 -17 -58 -11 -94 11 -25 15 -37 17 -45 9 -17 -18 36 -58 88 -65
67 -10 106 15 106 68 0 42 -14 62 -70 96 -40 25 -51 36 -48 54 4 28 43 35 69
11 18 -16 19 -16 25 1 5 12 0 24 -15 37 -27 21 -56 22 -92 3z"/>
<path d="M2358 3434 c-40 -21 -68 -82 -68 -148 0 -47 4 -61 28 -87 25 -28 33
-31 63 -25 20 3 45 15 57 26 27 25 30 25 34 -2 3 -24 25 -33 45 -20 8 5 9 19
3 45 -4 21 -4 70 1 114 10 80 4 99 -32 88 -9 -3 -32 1 -52 10 -44 18 -45 18
-79 -1z m84 -41 c13 -11 18 -30 18 -65 0 -61 -22 -106 -57 -114 -69 -18 -87
112 -23 176 24 24 38 25 62 3z"/>
<path d="M2134 3398 c-22 -24 -47 -54 -56 -68 -17 -25 -17 -24 -11 27 5 44 3
54 -12 59 -33 13 -45 -22 -45 -132 0 -74 4 -105 14 -113 24 -20 42 -2 54 57
16 76 61 157 87 157 19 0 20 -6 18 -106 -2 -92 0 -108 14 -113 31 -12 38 12
38 128 0 118 -9 146 -45 146 -10 0 -35 -19 -56 -42z"/>
<path d="M1905 3368 c-3 -24 -5 -79 -3 -123 3 -78 4 -80 28 -80 25 0 25 1 28
100 3 119 -2 145 -28 145 -15 0 -20 -9 -25 -42z"/>
<path d="M1755 2579 c-9 -44 -15 -82 -13 -83 1 -2 73 -44 158 -94 85 -49 207
-122 270 -160 163 -101 308 -181 315 -174 3 3 5 31 5 63 l0 59 -100 65 c-56
36 -105 65 -110 65 -4 0 -10 4 -12 8 -4 11 -369 255 -484 325 -7 4 -17 -21
-29 -74z m80 19 c26 -17 34 -28 30 -43 -2 -11 -5 -31 -5 -45 0 -14 -4 -31 -9
-39 -8 -13 -24 -7 -88 34 -7 4 21 115 29 115 4 0 24 -10 43 -22z m98 -63 c39
-27 42 -38 29 -107 l-7 -36 -44 25 c-41 25 -43 28 -37 62 3 20 6 46 6 59 0 28
7 28 53 -3z m103 -66 c32 -19 34 -24 34 -74 0 -30 -3 -56 -7 -58 -5 -3 -25 6
-45 19 -39 25 -47 53 -32 112 8 27 9 27 50 1z m109 -75 c21 -14 25 -24 25 -63
0 -26 -3 -50 -6 -54 -5 -5 -28 6 -63 29 -4 4 10 104 15 104 3 0 16 -7 29 -16z
m105 -121 c0 -29 -3 -53 -6 -53 -3 0 -19 9 -35 21 -29 21 -36 48 -23 96 6 22
7 22 35 6 26 -16 29 -23 29 -70z m68 5 c13 -13 17 -108 4 -108 -20 0 -32 28
-32 72 0 49 7 57 28 36z m63 -38 c15 -8 19 -21 19 -60 0 -49 0 -49 -25 -38
-22 10 -25 18 -25 60 0 52 1 53 31 38z m87 -104 l3 -46 -25 12 c-23 10 -26 17
-26 61 0 49 0 49 23 35 16 -12 23 -27 25 -62z"/>
<path d="M2066 2118 c-4 -40 -9 -96 -12 -124 l-6 -50 108 -42 c60 -23 111 -39
114 -36 3 3 6 54 8 113 l4 107 -100 52 c-55 29 -102 52 -104 52 -3 0 -8 -33
-12 -72z m64 27 l30 -16 0 -99 c0 -108 0 -108 -56 -88 l-33 12 5 60 c8 96 15
146 20 146 3 0 18 -7 34 -15z m99 -52 l31 -18 0 -92 c0 -57 -4 -93 -10 -93 -6
0 -27 7 -46 15 -30 12 -35 19 -30 37 3 13 6 56 6 96 0 39 4 72 9 72 5 0 23 -8
40 -17z"/>
<path d="M2691 2114 c0 -11 3 -14 6 -6 3 7 2 16 -1 19 -3 4 -6 -2 -5 -13z"/>
<path d="M2760 2100 c0 -11 4 -20 9 -20 5 0 7 9 4 20 -3 11 -7 20 -9 20 -2 0
-4 -9 -4 -20z"/>
<path d="M2630 2081 c0 -6 4 -13 10 -16 6 -3 7 1 4 9 -7 18 -14 21 -14 7z"/>
<path d="M2840 2081 c0 -6 5 -13 10 -16 6 -3 10 1 10 9 0 9 -4 16 -10 16 -5 0
-10 -4 -10 -9z"/>
<path d="M2886 2073 c-6 -14 -5 -15 5 -6 7 7 10 15 7 18 -3 3 -9 -2 -12 -12z"/>
<path d="M1630 1970 c-13 -61 -20 -114 -16 -118 14 -13 421 -141 427 -134 4 4
10 50 13 102 l7 95 -198 83 c-109 45 -201 82 -204 82 -3 0 -16 -50 -29 -110z
m158 36 c5 -6 -20 -170 -28 -179 -7 -9 -130 31 -130 43 0 10 30 161 35 178 3
9 20 5 62 -13 31 -14 59 -27 61 -29z m124 -137 c-2 -46 -5 -86 -8 -88 -2 -2
-31 4 -64 14 -68 21 -63 4 -40 139 5 33 10 61 10 63 0 1 24 -8 53 -21 l52 -23
-3 -84z m83 55 l48 -17 -7 -80 c-4 -45 -9 -83 -11 -86 -3 -2 -26 2 -53 10 -36
12 -47 20 -45 35 1 10 5 49 8 87 4 37 8 67 9 67 1 0 24 -7 51 -16z"/>
<path d="M2679 2050 c-4 -19 -3 -39 2 -44 5 -6 9 -21 9 -35 l0 -26 -21 25
c-18 22 -19 22 -10 3 6 -12 15 -24 20 -28 5 -3 12 -19 16 -36 4 -17 13 -33 21
-36 8 -3 14 -12 14 -20 0 -13 -2 -13 -17 -2 -15 13 -15 12 -4 -9 7 -13 10 -30
7 -39 -7 -17 20 -48 29 -33 3 5 1 10 -4 10 -6 0 -11 11 -11 25 0 18 4 23 16
18 14 -5 14 -3 3 14 -7 12 -9 28 -4 39 11 27 14 89 4 72 -5 -7 -9 -25 -9 -40
0 -40 -26 -36 -34 5 -3 18 -3 48 0 65 4 20 2 32 -4 32 -6 0 -12 17 -14 38 l-3
37 -6 -35z"/>
<path d="M2786 2011 c2 -38 0 -50 -6 -36 -6 13 -9 15 -9 5 0 -8 6 -24 14 -34
20 -26 19 -46 -2 -46 -12 0 -10 -6 10 -23 28 -24 36 -64 16 -84 -8 -8 -8 -13
0 -18 12 -7 18 4 25 50 3 16 12 35 21 41 8 6 15 16 15 22 0 6 5 12 12 14 9 3
9 6 -1 12 -8 5 -14 1 -18 -13 -3 -12 -9 -21 -13 -21 -5 0 -15 -3 -23 -6 -8 -3
-17 2 -20 10 -7 18 20 49 37 43 6 -3 17 6 23 20 10 21 10 24 -3 19 -19 -7 -18
17 1 54 15 30 15 30 -8 19 -21 -10 -23 -15 -17 -49 7 -40 -2 -60 -28 -60 -10
0 -13 10 -10 35 2 19 0 36 -5 38 -4 1 -4 14 2 29 7 19 7 28 -2 31 -9 3 -12
-11 -11 -52z"/>
<path d="M2964 2043 c-9 -16 -25 -33 -33 -40 -9 -6 -14 -14 -11 -16 8 -9 34
16 53 51 22 39 16 42 -9 5z"/>
<path d="M2530 2049 c0 -6 9 -13 20 -16 11 -3 20 -8 20 -12 0 -3 22 -29 48
-57 26 -27 37 -38 25 -24 -13 14 -23 30 -23 36 0 5 -9 15 -20 22 -11 7 -20 21
-20 32 0 13 -5 18 -15 14 -8 -4 -15 -1 -15 5 0 6 -4 11 -10 11 -5 0 -10 -5
-10 -11z"/>
<path d="M2726 2044 c-4 -10 -1 -14 6 -12 15 5 23 28 10 28 -5 0 -13 -7 -16
-16z"/>
<path d="M2615 2031 c-3 -6 4 -15 15 -21 20 -11 21 -10 10 9 -12 23 -16 25
-25 12z"/>
<path d="M3025 2010 c-27 -30 -12 -34 15 -5 13 14 19 25 13 25 -5 0 -18 -9
-28 -20z"/>
<path d="M2480 2006 c0 -2 8 -10 18 -17 15 -13 16 -12 3 4 -13 16 -21 21 -21
13z"/>
<path d="M2886 1993 c-6 -14 -5 -15 5 -6 7 7 10 15 7 18 -3 3 -9 -2 -12 -12z"/>
<path d="M2546 1991 c-3 -5 1 -14 8 -20 12 -10 13 -8 9 8 -6 23 -9 25 -17 12z"/>
<path d="M2521 1953 c13 -15 10 -16 -26 -10 -47 8 -18 -7 34 -17 l35 -6 -24
25 c-26 28 -40 34 -19 8z"/>
<path d="M2391 1954 c-1 -6 10 -21 23 -33 24 -23 25 -23 19 -2 -3 11 -11 21
-18 21 -7 0 -16 6 -18 13 -3 6 -6 7 -6 1z"/>
<path d="M2895 1949 c-4 -6 -5 -12 -2 -15 2 -3 7 2 10 11 7 17 1 20 -8 4z"/>
<path d="M2990 1953 c-21 -9 -40 -30 -33 -37 9 -9 71 -7 77 2 2 4 -11 6 -31 4
-25 -3 -34 -1 -29 7 4 6 14 11 22 11 8 0 14 5 14 10 0 6 -1 10 -2 9 -2 0 -10
-3 -18 -6z"/>
<path d="M2571 1939 c-1 -9 6 -22 14 -29 13 -11 13 -15 3 -21 -10 -7 -9 -9 5
-9 9 0 17 5 17 11 0 6 7 8 16 5 8 -3 12 -2 9 4 -3 6 -15 10 -26 10 -11 0 -24
10 -29 23 -6 15 -9 17 -9 6z"/>
<path d="M3077 1909 c-29 -33 -36 -49 -13 -30 7 6 26 9 42 7 16 -2 23 -1 17 1
-7 2 -13 9 -13 14 0 6 -4 7 -10 4 -14 -9 -13 8 2 23 7 7 10 12 7 12 -2 0 -17
-14 -32 -31z"/>
<path d="M2385 1890 c3 -5 8 -10 11 -10 2 0 4 5 4 10 0 6 -5 10 -11 10 -5 0
-7 -4 -4 -10z"/>
<path d="M2666 1893 c6 -4 14 -15 17 -23 5 -11 6 -9 4 4 -1 11 -9 21 -17 23
-10 3 -11 2 -4 -4z"/>
<path d="M2926 1873 c-10 -14 -24 -22 -32 -19 -8 3 -14 -1 -14 -10 0 -8 -7
-28 -15 -44 -14 -27 -14 -30 0 -30 8 0 15 3 16 8 3 29 10 47 23 60 23 23 31 7
12 -23 -9 -14 -14 -25 -11 -25 12 0 35 29 35 44 0 8 6 19 14 23 11 6 12 11 3
24 -11 15 -14 14 -31 -8z"/>
<path d="M2456 1879 c4 -8 0 -9 -15 -4 -12 4 -21 2 -21 -4 0 -6 -9 -11 -20
-11 -17 0 -19 -2 -8 -14 9 -10 15 -10 20 -3 4 6 10 8 14 4 4 -4 16 0 26 10 20
18 24 33 7 33 -5 0 -7 -5 -3 -11z"/>
<path d="M2525 1869 c5 -19 2 -28 -10 -33 -9 -3 -13 -2 -10 3 9 16 -12 22 -25
6 -10 -12 -7 -15 17 -20 54 -12 56 -14 39 -31 -18 -18 -21 -34 -6 -34 6 0 10
7 10 15 0 8 9 15 21 15 13 0 18 -4 13 -12 -5 -7 -3 -8 6 -3 9 5 5 13 -14 30
-32 27 -33 39 -3 32 22 -6 22 -6 2 9 -11 8 -26 22 -33 32 -12 15 -13 14 -7 -9z"/>
<path d="M2606 1861 c-4 -5 -3 -17 1 -27 4 -12 3 -15 -5 -10 -19 12 -14 -2 10
-24 32 -30 38 -24 17 17 -10 20 -16 39 -13 42 6 7 49 -40 57 -61 2 -7 8 -9 13
-4 5 5 4 11 -3 13 -7 3 -13 11 -13 20 0 31 -50 57 -64 34z"/>
<path d="M2980 1824 c-25 -24 -42 -44 -38 -44 4 0 16 10 28 22 16 17 23 19 32
10 7 -7 17 -12 23 -12 5 0 3 5 -5 10 -12 7 -10 11 10 19 20 8 21 10 6 10 -15
1 -16 4 -6 16 26 32 -7 11 -50 -31z"/>
<path d="M2310 1852 c0 -7 -7 -9 -17 -5 -16 6 -16 5 -4 -11 13 -16 15 -16 24
-1 5 9 6 19 3 22 -3 4 -6 1 -6 -5z"/>
<path d="M3115 1840 c-3 -6 1 -7 9 -4 18 7 21 14 7 14 -6 0 -13 -4 -16 -10z"/>
<path d="M2257 1819 c7 -7 15 -10 18 -7 3 3 -2 9 -12 12 -14 6 -15 5 -6 -5z"/>
<path d="M2425 1820 c-3 -5 -1 -10 4 -10 6 0 11 5 11 10 0 6 -2 10 -4 10 -3 0
-8 -4 -11 -10z"/>
<path d="M3059 1813 c-8 -8 -30 -28 -49 -44 -19 -16 -27 -26 -17 -23 9 3 17 9
17 13 0 4 10 13 23 20 61 33 68 38 54 44 -8 3 -20 -1 -28 -10z"/>
<path d="M2389 1789 c-11 -21 -13 -21 -24 -6 -7 9 -16 17 -20 17 -5 0 1 -10
13 -23 12 -13 20 -26 18 -28 -3 -3 5 -11 17 -18 20 -13 21 -13 8 3 -11 13 -12
22 -2 43 15 32 7 43 -10 12z"/>
<path d="M2470 1800 c-13 -8 -13 -10 2 -10 12 0 16 -9 16 -34 0 -28 -3 -34
-16 -30 -14 5 -14 4 1 -6 22 -14 22 -25 -4 -49 -15 -13 -19 -26 -14 -40 7 -24
-30 -64 -53 -56 -7 3 -10 0 -7 -5 3 -6 -1 -10 -9 -10 -9 0 -24 17 -35 38 -16
30 -20 33 -21 15 0 -12 5 -25 10 -28 6 -4 8 -11 4 -16 -3 -5 -10 -7 -15 -4 -5
3 -6 -1 -2 -10 4 -12 8 -13 13 -5 8 14 50 4 62 -14 5 -7 8 -5 8 6 0 9 17 27
38 39 20 13 40 28 44 33 11 16 30 -7 22 -27 -3 -9 -15 -17 -25 -17 -11 0 -16
-5 -13 -13 5 -15 -52 -61 -66 -52 -6 3 -10 1 -10 -4 0 -6 3 -11 7 -11 13 0 83
34 83 40 0 12 35 45 60 58 l25 12 -25 -6 c-14 -4 -22 -3 -18 1 12 13 -21 37
-41 30 -26 -8 -37 13 -18 33 15 14 17 14 23 -1 3 -9 10 -14 15 -11 5 3 2 12
-7 21 -13 13 -13 18 -2 25 10 7 10 11 1 15 -9 3 -10 10 -4 22 18 33 -4 86 -29
71z"/>
<path d="M2775 1780 c2 -31 15 -37 15 -7 0 15 -4 27 -8 27 -5 0 -8 -9 -7 -20z"/>
<path d="M2280 1781 c0 -6 4 -13 10 -16 6 -3 7 1 4 9 -7 18 -14 21 -14 7z"/>
<path d="M2199 1762 c13 -25 28 -35 34 -25 3 5 -6 16 -20 27 -25 18 -25 18
-14 -2z"/>
<path d="M2430 1776 c0 -2 7 -6 15 -10 8 -3 15 -1 15 4 0 6 -7 10 -15 10 -8 0
-15 -2 -15 -4z"/>
<path d="M2910 1769 c0 -5 5 -7 10 -4 6 3 10 8 10 11 0 2 -4 4 -10 4 -5 0 -10
-5 -10 -11z"/>
<path d="M3096 1765 c-16 -12 -17 -15 -4 -15 9 0 18 7 22 15 7 18 6 18 -18 0z"/>
<path d="M3143 1765 c-17 -19 -16 -30 0 -16 8 6 17 8 21 4 4 -4 4 0 0 10 -7
20 -6 20 -21 2z"/>
<path d="M2665 1760 c3 -5 13 -10 21 -10 11 0 12 -4 5 -19 -8 -14 -7 -20 4
-25 11 -4 15 2 15 23 0 17 -6 31 -16 35 -23 9 -36 7 -29 -4z"/>
<path d="M2948 1756 c-10 -7 -15 -16 -11 -19 10 -10 -18 -37 -39 -37 -10 0
-17 -4 -13 -10 3 -5 13 -6 22 -3 22 9 53 40 46 47 -3 3 0 12 7 21 15 18 11 19
-12 1z"/>
<path d="M2135 1750 c-3 -5 1 -10 10 -10 9 0 13 5 10 10 -3 6 -8 10 -10 10 -2
0 -7 -4 -10 -10z"/>
<path d="M2611 1751 c-8 -5 -19 -7 -25 -5 -15 5 -42 -13 -33 -23 5 -4 11 -2
15 4 4 7 24 10 45 8 24 -2 37 1 34 8 -5 15 -19 18 -36 8z"/>
<path d="M2811 1728 c-1 -20 -5 -48 -11 -62 -8 -21 -6 -26 12 -32 13 -4 24 -1
29 7 4 8 14 14 20 14 7 0 13 6 15 13 1 7 0 8 -3 2 -2 -5 -9 -7 -15 -4 -5 3
-15 -2 -23 -12 -18 -25 -33 -9 -17 17 7 11 10 24 7 29 -3 5 -1 19 6 31 6 12 7
19 1 15 -6 -3 -13 0 -15 6 -3 7 -6 -4 -6 -24z"/>
<path d="M2740 1729 c0 -12 -7 -27 -15 -33 -11 -8 -12 -15 -4 -26 9 -12 10
-12 5 4 -4 12 -2 17 7 13 9 -3 14 6 15 29 2 19 0 34 -3 34 -3 0 -5 -10 -5 -21z"/>
<path d="M2855 1740 c-3 -5 -1 -10 4 -10 6 0 11 5 11 10 0 6 -2 10 -4 10 -3 0
-8 -4 -11 -10z"/>
<path d="M3061 1734 c0 -11 3 -14 6 -6 3 7 2 16 -1 19 -3 4 -6 -2 -5 -13z"/>
<path d="M2250 1736 c0 -2 7 -9 15 -16 13 -11 14 -10 9 4 -5 14 -24 23 -24 12z"/>
<path d="M2890 1725 c-7 -8 -9 -15 -6 -15 4 0 14 7 22 15 9 8 11 15 6 15 -5 0
-15 -7 -22 -15z"/>
<path d="M2640 1720 c-13 -8 -13 -10 2 -10 9 0 20 5 23 10 8 13 -5 13 -25 0z"/>
<path d="M3120 1719 c0 -5 -4 -8 -8 -5 -5 3 -15 -6 -22 -19 -7 -14 -22 -28
-33 -31 -38 -12 6 -24 46 -13 42 11 51 23 11 13 -30 -8 -28 2 9 44 11 12 15
22 9 22 -7 0 -12 -5 -12 -11z"/>
<path d="M2190 1706 c0 -7 9 -16 21 -19 20 -5 20 -5 3 14 -20 23 -24 23 -24 5z"/>
<path d="M2420 1711 c0 -12 28 -22 35 -12 3 5 -2 12 -11 15 -21 8 -24 8 -24
-3z"/>
<path d="M2518 1703 c-5 -27 15 -63 35 -63 24 0 21 17 -4 23 -17 5 -20 11 -17
31 3 14 2 26 -3 26 -4 0 -9 -8 -11 -17z"/>
<path d="M2845 1709 c-11 -17 1 -21 15 -4 8 9 8 15 2 15 -6 0 -14 -5 -17 -11z"/>
<path d="M2142 1694 c-7 -8 -8 -14 -3 -14 10 0 25 19 20 25 -2 1 -10 -3 -17
-11z"/>
<path d="M2290 1706 c0 -2 11 -11 24 -20 18 -11 27 -13 32 -4 4 7 3 8 -4 4 -7
-4 -12 -1 -12 8 0 9 -9 16 -20 16 -11 0 -20 -2 -20 -4z"/>
<path d="M2355 1699 c4 -5 15 -9 25 -9 25 0 38 -27 34 -70 l-4 -35 11 35 c6
19 15 41 21 48 7 8 7 12 0 12 -6 0 -13 -6 -15 -12 -3 -8 -6 -6 -6 5 -1 9 -2
17 -4 17 -1 0 -17 4 -35 9 -20 6 -30 6 -27 0z"/>
<path d="M3046 1694 c-9 -23 -4 -24 17 -2 13 14 14 18 3 18 -8 0 -17 -7 -20
-16z"/>
<path d="M2568 1693 c7 -3 16 -2 19 1 4 3 -2 6 -13 5 -11 0 -14 -3 -6 -6z"/>
<path d="M2600 1691 c0 -5 6 -14 14 -20 11 -9 15 -8 20 5 9 23 8 24 -14 24
-11 0 -20 -4 -20 -9z"/>
<path d="M2674 1692 c3 -5 0 -12 -6 -15 -10 -4 -10 -7 -1 -16 7 -6 11 -8 8 -5
-3 4 0 13 6 20 7 8 6 14 -2 20 -7 4 -9 3 -5 -4z"/>
<path d="M2250 1680 c-13 -8 -12 -10 3 -10 9 0 17 5 17 10 0 12 -1 12 -20 0z"/>
<path d="M2581 1680 c-8 -18 -6 -56 3 -62 16 -11 28 -10 21 3 -4 6 0 9 10 7
10 -2 20 2 22 8 2 7 -5 10 -21 7 -19 -4 -25 0 -29 18 -2 13 -5 22 -6 19z"/>
<path d="M2097 1651 c-3 -12 -2 -23 3 -26 11 -7 20 19 10 34 -5 9 -9 7 -13 -8z"/>
<path d="M2186 1655 c4 -8 8 -15 10 -15 2 0 4 7 4 15 0 8 -4 15 -10 15 -5 0
-7 -7 -4 -15z"/>
<path d="M2286 1655 c4 -8 10 -15 15 -15 4 0 6 7 3 15 -4 8 -10 15 -15 15 -4
0 -6 -7 -3 -15z"/>
<path d="M2362 1640 c12 -40 30 -65 21 -30 -4 13 0 26 8 32 12 8 11 9 -1 5 -8
-2 -21 3 -27 12 -10 13 -11 9 -1 -19z"/>
<path d="M2736 1654 c-3 -8 -2 -13 3 -9 5 3 11 0 13 -6 2 -7 8 -10 14 -8 5 2
2 12 -7 21 -15 14 -18 14 -23 2z"/>
<path d="M2691 1644 c0 -11 3 -14 6 -6 3 7 2 16 -1 19 -3 4 -6 -2 -5 -13z"/>
<path d="M2905 1640 c-10 -11 -24 -20 -32 -20 -8 0 -11 -4 -8 -10 7 -12 37 6
54 31 15 25 9 24 -14 -1z"/>
<path d="M2151 1619 c12 -23 15 -23 22 -5 3 8 -2 16 -14 19 -16 4 -17 2 -8
-14z"/>
<path d="M2663 1613 c0 -14 3 -20 6 -14 4 6 17 9 29 6 13 -2 20 0 17 6 -4 5
-10 7 -15 4 -5 -3 -15 1 -23 9 -13 13 -14 12 -14 -11z"/>
<path d="M2210 1620 c-13 -8 -12 -10 3 -10 9 0 17 5 17 10 0 12 -1 12 -20 0z"/>
<path d="M2048 1603 c7 -3 16 -2 19 1 4 3 -2 6 -13 5 -11 0 -14 -3 -6 -6z"/>
<path d="M2008 1593 c7 -3 16 -2 19 1 4 3 -2 6 -13 5 -11 0 -14 -3 -6 -6z"/>
<path d="M2244 1589 c-3 -5 4 -9 15 -9 12 0 21 -6 21 -14 0 -7 8 -20 18 -27
16 -13 16 -12 3 4 -10 13 -11 21 -4 25 8 5 7 10 -1 17 -14 13 -45 15 -52 4z"/>
<path d="M2630 1590 c13 -9 13 -10 0 -10 -9 -1 -6 -5 8 -10 31 -13 29 -32 -2
-20 -24 9 -36 5 -36 -12 0 -4 10 -8 23 -8 12 0 33 -9 47 -20 30 -23 48 -26 30
-5 -15 18 1 20 19 3 8 -7 5 1 -5 17 -23 38 -29 44 -21 23 8 -21 -11 -34 -26
-19 -8 8 -8 11 1 11 8 0 4 12 -10 30 -12 17 -27 30 -32 30 -6 0 -4 -5 4 -10z"/>
<path d="M3096 1591 c-4 -7 -5 -15 -2 -18 9 -9 19 4 14 18 -4 11 -6 11 -12 0z"/>
<path d="M2156 1575 c4 -8 10 -15 15 -15 4 0 6 7 3 15 -4 8 -10 15 -15 15 -4
0 -6 -7 -3 -15z"/>
<path d="M2572 1565 c-13 -13 -28 -23 -35 -21 -7 1 -8 1 -4 -2 4 -2 2 -11 -5
-20 -11 -13 -10 -15 5 -9 10 4 28 7 40 8 20 1 20 2 -3 9 l-25 7 28 11 c15 6
27 18 27 27 0 19 -1 19 -28 -10z"/>
<path d="M2106 1546 c3 -8 -2 -16 -13 -19 -15 -4 -15 -5 -1 -6 9 0 23 6 31 14
8 8 18 11 22 7 5 -4 5 -1 1 6 -10 17 -47 16 -40 -2z"/>
<path d="M2176 1544 c-11 -8 -18 -15 -15 -15 2 -1 17 -3 32 -5 25 -3 27 -1 16
14 -8 9 -13 18 -14 19 0 1 -9 -5 -19 -13z"/>
<path d="M2316 1522 c-2 -4 7 -13 21 -19 25 -12 25 -12 8 7 -20 22 -22 23 -29
12z"/>
<path d="M2254 1505 c36 -19 41 -19 22 0 -8 8 -23 15 -33 15 -13 0 -10 -4 11
-15z"/>
<path d="M2185 1490 c-4 -6 7 -10 25 -10 18 0 29 4 25 10 -3 6 -15 10 -25 10
-10 0 -22 -4 -25 -10z"/>
<path d="M2107 1469 c7 -7 15 -10 18 -7 3 3 -2 9 -12 12 -14 6 -15 5 -6 -5z"/>
<path d="M2145 1470 c4 -6 11 -8 16 -5 14 9 11 15 -7 15 -8 0 -12 -5 -9 -10z"/>
<path d="M2345 1470 c27 -12 43 -12 25 0 -8 5 -22 9 -30 9 -10 0 -8 -3 5 -9z"/>
<path d="M2396 1453 c5 -5 12 -12 15 -16 3 -5 9 -2 12 7 5 12 0 16 -15 16 -12
0 -17 -3 -12 -7z"/>
<path d="M2252 1238 c-23 -29 -32 -102 -32 -266 0 -175 10 -251 37 -273 26
-23 32 4 24 116 -7 98 -6 116 11 160 53 133 64 221 33 255 -20 23 -57 26 -73
8z m55 -98 c-4 -31 -11 -67 -16 -81 -8 -20 -10 -14 -10 32 -1 71 8 121 21 112
7 -3 8 -29 5 -63z"/>
<path d="M3504 1225 c-39 -59 -43 -419 -6 -495 22 -44 48 -47 45 -5 -16 206
-16 198 7 255 53 131 63 217 30 250 -27 27 -56 25 -76 -5z m61 -84 c-4 -31
-13 -69 -19 -86 -12 -27 -12 -21 -9 50 5 93 9 109 24 99 7 -4 9 -25 4 -63z"/>
<path d="M1700 1213 c-26 -13 -44 -35 -70 -87 -34 -67 -35 -72 -35 -185 0
-101 3 -121 23 -158 27 -52 59 -74 115 -80 54 -6 130 31 135 65 4 28 -11 28
-49 0 -38 -28 -99 -30 -128 -4 -11 10 -26 34 -32 54 -16 48 -6 194 18 256 17
48 71 116 90 116 10 0 32 -20 63 -60 16 -21 21 -22 29 -11 6 10 5 24 -5 43
-30 57 -98 80 -154 51z"/>
<path d="M561 1196 c-22 -27 -34 -192 -23 -333 5 -72 13 -136 16 -142 8 -12
137 -14 201 -3 31 6 40 12 40 27 0 18 -5 20 -55 16 -30 -3 -71 -5 -90 -5 l-35
-1 -3 78 -3 77 33 1 c52 2 83 13 86 33 4 17 -1 19 -57 13 l-61 -7 0 88 c0 48
3 97 6 108 6 22 8 23 137 10 27 -3 40 0 44 11 10 25 -8 30 -118 37 -87 6 -108
4 -118 -8z"/>
<path d="M2427 1193 c-3 -5 -8 -30 -11 -58 -15 -114 -16 -117 -36 -112 -22 6
-42 -13 -32 -29 4 -6 17 -14 28 -18 19 -6 22 -16 26 -104 7 -139 37 -187 111
-180 24 2 32 8 32 23 0 16 -6 19 -26 17 -42 -4 -52 19 -57 132 l-4 103 31 6
c23 5 31 12 31 28 0 16 -5 20 -20 16 -11 -3 -22 -2 -24 1 -2 4 0 43 4 87 8 83
4 95 -32 95 -9 0 -19 -3 -21 -7z"/>
<path d="M886 1011 c-33 -34 -56 -106 -56 -176 0 -90 56 -145 133 -131 48 9
97 43 97 66 0 25 -13 25 -48 0 -68 -48 -112 -32 -119 46 -6 61 10 125 42 161
19 23 27 26 42 17 10 -6 24 -23 31 -37 7 -15 20 -27 28 -27 19 0 17 40 -4 66
-42 52 -104 58 -146 15z"/>
<path d="M1143 1025 c-36 -15 -66 -56 -61 -81 5 -29 25 -26 36 6 13 35 50 55
87 46 18 -5 32 -20 45 -49 24 -52 25 -94 4 -147 -38 -94 -117 -69 -101 33 6
43 -8 77 -32 77 -53 0 -37 -154 20 -194 106 -74 236 121 170 257 -31 65 -94
85 -168 52z"/>
<path d="M3234 1011 c-81 -49 -101 -214 -34 -281 28 -28 79 -26 124 5 45 30
44 30 48 3 2 -17 10 -23 28 -23 l25 0 2 115 c2 63 4 126 5 140 3 22 -1 25 -32
28 -19 2 -49 9 -67 17 -41 20 -62 19 -99 -4z m109 -49 c27 -23 24 -119 -6
-163 -29 -44 -77 -52 -101 -17 -35 50 -6 171 48 196 22 10 31 8 59 -16z"/>
<path d="M3023 984 c-18 -20 -43 -54 -54 -75 -10 -21 -21 -39 -24 -39 -3 0 -2
26 1 58 6 51 4 60 -12 66 -11 4 -24 1 -33 -9 -13 -13 -16 -40 -16 -140 0 -130
7 -152 43 -141 14 5 21 18 25 46 6 48 55 153 90 195 34 40 53 25 38 -30 -6
-21 -8 -42 -5 -47 10 -16 32 -8 38 15 8 29 8 101 0 121 -11 28 -54 19 -91 -20z"/>
<path d="M1915 990 c-3 -5 -8 -47 -11 -92 -6 -93 11 -174 38 -192 25 -16 82
18 124 73 l34 44 0 -31 c0 -50 17 -84 41 -80 20 3 21 10 25 123 2 66 5 129 6
140 2 16 -4 21 -29 23 -28 3 -33 0 -38 -25 -23 -110 -78 -213 -114 -213 -28 0
-34 30 -26 141 l7 99 -25 0 c-14 0 -29 -4 -32 -10z"/>
<path d="M2574 965 c-3 -20 -4 -78 -2 -131 3 -80 7 -98 25 -116 19 -19 25 -20
53 -8 17 7 48 32 69 56 21 24 41 44 45 44 3 0 6 -15 6 -34 0 -47 9 -66 31 -66
26 0 27 4 32 158 l6 133 -32 -3 c-28 -3 -32 -7 -42 -53 -24 -103 -85 -195
-121 -181 -14 5 -16 21 -13 119 l4 112 -27 3 c-24 3 -28 -1 -34 -33z"/>
<path d="M1410 891 c-23 -4 -36 -12 -38 -24 -4 -18 2 -18 85 -12 48 4 90 9 92
11 2 2 1 10 -2 19 -7 16 -66 19 -137 6z"/>
<path d="M630 585 l25 -24 1400 -7 1400 -7 23 25 22 25 -886 6 c-488 4 -1140
7 -1448 7 l-561 0 25 -25z"/>
</g>
</svg>
